<?xml version="1.0" standalone="no"?><!DOCTYPE svg PUBLIC "-//W3C//DTD SVG 1.1//EN" "http://www.w3.org/Graphics/SVG/1.1/DTD/svg11.dtd"><svg t="1510578979317" class="icon" style="" viewBox="0 0 1024 1024" version="1.1" xmlns="http://www.w3.org/2000/svg" p-id="4368" xmlns:xlink="http://www.w3.org/1999/xlink" width="22" height="22"><defs><style type="text/css"></style></defs><path d="M442.249846 315.864615l66.56 0-204.406154 139.421538L215.000615 389.907692 215.000615 326.104615l89.403077 65.378462L442.249846 315.864615zM304.403692 599.433846l-89.403077-65.378462 0 63.803077 89.403077 65.378462 204.406154-139.421538-66.56 0L304.403692 599.433846zM304.403692 807.384615l-89.403077-65.378462 0 63.803077 89.403077 65.378462 204.406154-139.421538-66.56 0L304.403692 807.384615zM571.037538 827.076923l236.307692 0 0-78.769231-236.307692 0L571.037538 827.076923zM571.037538 630.153846l236.307692 0 0-78.769231-236.307692 0L571.037538 630.153846zM571.037538 433.230769l236.307692 0L807.345231 354.461538l-236.307692 0L571.037538 433.230769zM964.883692 288.689231 964.883692 968.861538c0 26.781538-20.48 48.836923-47.655385 53.956923-2.756923 0.787692-5.907692 1.181538-9.058462 1.181538L119.689846 1024l-1.181538 0c-3.938462 0-7.876923-0.393846-11.815385-1.181538-27.175385-5.12-47.655385-27.569231-47.655385-53.956923L59.037538 55.138462c0-3.938462 0.393846-7.483077 1.181538-11.027692C65.732923 18.904615 89.757538 0 118.508308 0l528.935385 0 1.575385 0c6.695385 0 12.996923 2.363077 18.116923 5.907692 1.969231 0.787692 3.938462 2.363077 5.513846 3.544615 2.363077 1.575385 276.873846 248.123077 276.873846 248.123077l1.575385 1.575385C960.945231 267.815385 965.671385 278.843077 964.883692 288.689231zM688.797538 249.698462l172.504615 0-172.110769-153.678769L688.797538 249.698462zM889.659077 317.833846l-207.163077 0c0 0-7.876923-0.393846-11.421538-1.181538-27.175385-5.12-47.655385-27.175385-47.655385-53.956923L623.419077 79.517538 139.776 79.163077l0 865.673846 749.883077 0L889.659077 317.833846z" p-id="4369"></path></svg>